<svg xmlns="http://www.w3.org/2000/svg" width="0" height="0" style="position:absolute" aria-hidden="true">

  <!-- generic ui icons -->
  <symbol id="i-chev-down" viewBox="0 0 24 24"><polyline points="6 9 12 15 18 9" fill="none" stroke="currentColor" stroke-width="2" stroke-linecap="round" stroke-linejoin="round"/></symbol>
  <symbol id="i-chev-up" viewBox="0 0 24 24"><polyline points="6 15 12 9 18 15" fill="none" stroke="currentColor" stroke-width="2" stroke-linecap="round" stroke-linejoin="round"/></symbol>
  <symbol id="i-chev-right" viewBox="0 0 24 24"><polyline points="9 6 15 12 9 18" fill="none" stroke="currentColor" stroke-width="2" stroke-linecap="round" stroke-linejoin="round"/></symbol>
  <symbol id="i-more" viewBox="0 0 24 24"><circle cx="12" cy="5" r="1.4" fill="currentColor"/><circle cx="12" cy="12" r="1.4" fill="currentColor"/><circle cx="12" cy="19" r="1.4" fill="currentColor"/></symbol>
  <symbol id="i-help" viewBox="0 0 24 24"><circle cx="12" cy="12" r="9" fill="none" stroke="currentColor" stroke-width="1.7"/><path d="M9.5 9.5a2.5 2.5 0 0 1 5 0c0 1.5-2.5 2-2.5 4" fill="none" stroke="currentColor" stroke-width="1.7" stroke-linecap="round"/><circle cx="12" cy="17" r="0.9" fill="currentColor"/></symbol>
  <symbol id="i-paperclip" viewBox="0 0 24 24"><path d="M21 11.5L12.5 20a5 5 0 0 1-7-7L14 4.5a3.5 3.5 0 0 1 5 5L10.5 18a2 2 0 0 1-3-3L15 7.5" fill="none" stroke="currentColor" stroke-width="1.7" stroke-linecap="round" stroke-linejoin="round"/></symbol>
  <symbol id="i-send" viewBox="0 0 24 24"><path d="M3 20L21 12 3 4 3 11 16 12 3 13Z" fill="currentColor"/></symbol>
  <symbol id="i-check" viewBox="0 0 24 24"><polyline points="4 12 10 18 20 7" fill="none" stroke="currentColor" stroke-width="3" stroke-linecap="round" stroke-linejoin="round"/></symbol>
  <symbol id="i-warning" viewBox="0 0 24 24"><path d="M12 3L22 20H2L12 3Z" fill="none" stroke="currentColor" stroke-width="1.7" stroke-linejoin="round"/><line x1="12" y1="10" x2="12" y2="14" stroke="currentColor" stroke-width="1.7" stroke-linecap="round"/><circle cx="12" cy="17" r="0.9" fill="currentColor"/></symbol>
  <symbol id="i-cog" viewBox="0 0 24 24"><circle cx="12" cy="12" r="3" fill="none" stroke="currentColor" stroke-width="1.7"/><path d="M19.4 15a1.7 1.7 0 0 0 .3 1.8l.1.1a2 2 0 1 1-2.9 2.9l-.1-.1a1.7 1.7 0 0 0-1.8-.3 1.7 1.7 0 0 0-1 1.5V21a2 2 0 1 1-4 0v-.1a1.7 1.7 0 0 0-1-1.5 1.7 1.7 0 0 0-1.8.3l-.1.1a2 2 0 1 1-2.9-2.9l.1-.1a1.7 1.7 0 0 0 .3-1.8 1.7 1.7 0 0 0-1.5-1H3a2 2 0 1 1 0-4h.1a1.7 1.7 0 0 0 1.5-1 1.7 1.7 0 0 0-.3-1.8l-.1-.1a2 2 0 1 1 2.9-2.9l.1.1a1.7 1.7 0 0 0 1.8.3h.1a1.7 1.7 0 0 0 1-1.5V3a2 2 0 1 1 4 0v.1a1.7 1.7 0 0 0 1 1.5 1.7 1.7 0 0 0 1.8-.3l.1-.1a2 2 0 1 1 2.9 2.9l-.1.1a1.7 1.7 0 0 0-.3 1.8v.1a1.7 1.7 0 0 0 1.5 1H21a2 2 0 1 1 0 4h-.1a1.7 1.7 0 0 0-1.5 1Z" fill="none" stroke="currentColor" stroke-width="1.6"/></symbol>
  <symbol id="i-clock" viewBox="0 0 24 24"><circle cx="12" cy="12" r="9" fill="none" stroke="currentColor" stroke-width="1.7"/><polyline points="12 7 12 12 16 14" fill="none" stroke="currentColor" stroke-width="1.7" stroke-linecap="round" stroke-linejoin="round"/></symbol>
  <symbol id="i-external" viewBox="0 0 24 24"><path d="M14 5h5v5M10 14L19 5M19 14v5H5V5h5" fill="none" stroke="currentColor" stroke-width="1.7" stroke-linecap="round" stroke-linejoin="round"/></symbol>
  <symbol id="i-download" viewBox="0 0 24 24"><path d="M12 4v12M7 11l5 5 5-5M4 20h16" fill="none" stroke="currentColor" stroke-width="1.7" stroke-linecap="round" stroke-linejoin="round"/></symbol>
  <symbol id="i-branch" viewBox="0 0 24 24"><circle cx="6" cy="6" r="2" fill="none" stroke="currentColor" stroke-width="1.7"/><circle cx="6" cy="18" r="2" fill="none" stroke="currentColor" stroke-width="1.7"/><circle cx="18" cy="9" r="2" fill="none" stroke="currentColor" stroke-width="1.7"/><path d="M6 8v8M18 11v1a4 4 0 0 1-4 4H8" fill="none" stroke="currentColor" stroke-width="1.7" stroke-linecap="round"/></symbol>
  <symbol id="i-trace" viewBox="0 0 24 24"><circle cx="6" cy="6" r="2" fill="none" stroke="currentColor" stroke-width="1.6"/><circle cx="12" cy="14" r="2" fill="none" stroke="currentColor" stroke-width="1.6"/><circle cx="18" cy="6" r="2" fill="none" stroke="currentColor" stroke-width="1.6"/><circle cx="20" cy="18" r="1.5" fill="none" stroke="currentColor" stroke-width="1.6"/><path d="M7.4 7.4L10.5 12.5M13.5 12.6L16.5 7.4M14 14h4.5" fill="none" stroke="currentColor" stroke-width="1.6" stroke-linecap="round"/></symbol>
  <symbol id="i-promote" viewBox="0 0 24 24"><path d="M12 5v14M5 12l7-7 7 7" fill="none" stroke="currentColor" stroke-width="1.8" stroke-linecap="round" stroke-linejoin="round"/></symbol>
  <symbol id="i-search" viewBox="0 0 24 24"><circle cx="11" cy="11" r="6.5" fill="none" stroke="currentColor" stroke-width="1.7"/><line x1="16" y1="16" x2="21" y2="21" stroke="currentColor" stroke-width="1.7" stroke-linecap="round"/></symbol>
  <symbol id="i-compare" viewBox="0 0 24 24"><path d="M4 6h12l-3-3M20 18H8l3 3" fill="none" stroke="currentColor" stroke-width="1.7" stroke-linecap="round" stroke-linejoin="round"/></symbol>
  <symbol id="i-plus" viewBox="0 0 24 24"><path d="M12 5v14M5 12h14" stroke="currentColor" stroke-width="2" stroke-linecap="round"/></symbol>

  <!-- left rail -->
  <symbol id="i-brand" viewBox="0 0 32 32"><path d="M16 3l11 6v14l-11 6L5 23V9l11-6z" fill="none" stroke="currentColor" stroke-width="1.6" stroke-linejoin="round"/><path d="M16 3v26M5 9l22 14M27 9L5 23" fill="none" stroke="currentColor" stroke-width="1.2" opacity="0.65"/></symbol>
  <symbol id="i-home" viewBox="0 0 24 24"><path d="M3 11L12 4l9 7v8a2 2 0 0 1-2 2h-3v-6h-8v6H5a2 2 0 0 1-2-2v-8Z" fill="none" stroke="currentColor" stroke-width="1.6" stroke-linejoin="round"/></symbol>
  <symbol id="i-projects" viewBox="0 0 24 24"><rect x="3" y="6" width="18" height="14" rx="2" fill="none" stroke="currentColor" stroke-width="1.6"/><path d="M3 9h7l2-3h7" fill="none" stroke="currentColor" stroke-width="1.6" stroke-linejoin="round"/></symbol>
  <symbol id="i-queues" viewBox="0 0 24 24"><ellipse cx="12" cy="6" rx="8" ry="2.6" fill="none" stroke="currentColor" stroke-width="1.6"/><path d="M4 6v5c0 1.4 3.6 2.6 8 2.6s8-1.2 8-2.6V6" fill="none" stroke="currentColor" stroke-width="1.6"/><path d="M4 12v5c0 1.4 3.6 2.6 8 2.6s8-1.2 8-2.6V12" fill="none" stroke="currentColor" stroke-width="1.6"/></symbol>
  <symbol id="i-alerts" viewBox="0 0 24 24"><path d="M6 17V11a6 6 0 1 1 12 0v6l1.5 2.5h-15Z" fill="none" stroke="currentColor" stroke-width="1.6" stroke-linejoin="round"/><path d="M10 21a2 2 0 0 0 4 0" fill="none" stroke="currentColor" stroke-width="1.6"/></symbol>

  <!-- tree section/item icons -->
  <symbol id="i-db" viewBox="0 0 24 24"><ellipse cx="12" cy="6" rx="7" ry="2.4" fill="none" stroke="currentColor" stroke-width="1.6"/><path d="M5 6v6c0 1.3 3.1 2.4 7 2.4s7-1.1 7-2.4V6" fill="none" stroke="currentColor" stroke-width="1.6"/><path d="M5 12v6c0 1.3 3.1 2.4 7 2.4s7-1.1 7-2.4v-6" fill="none" stroke="currentColor" stroke-width="1.6"/></symbol>
  <symbol id="i-thread" viewBox="0 0 24 24"><path d="M4 12a8 8 0 1 1 16 0c0 4-3 7-7 7H4l2-3a8 8 0 0 1-2-4Z" fill="none" stroke="currentColor" stroke-width="1.6" stroke-linejoin="round"/></symbol>
  <symbol id="i-fig" viewBox="0 0 24 24"><path d="M4 19V5M4 19h16" fill="none" stroke="currentColor" stroke-width="1.6"/><path d="M7 16V11M11 16V8M15 16V12M19 16V7" fill="none" stroke="currentColor" stroke-width="1.6" stroke-linecap="round"/></symbol>
  <symbol id="i-bulb" viewBox="0 0 24 24"><path d="M9 18h6M10 21h4M8 14a5 5 0 1 1 8 0c-.7 1-1 2-1 3H9c0-1-.3-2-1-3Z" fill="none" stroke="currentColor" stroke-width="1.6" stroke-linejoin="round"/></symbol>
  <symbol id="i-doc" viewBox="0 0 24 24"><path d="M6 3h9l5 5v13H6z" fill="none" stroke="currentColor" stroke-width="1.6" stroke-linejoin="round"/><path d="M14 3v6h6" fill="none" stroke="currentColor" stroke-width="1.6"/><path d="M9 13h6M9 17h6" fill="none" stroke="currentColor" stroke-width="1.6"/></symbol>

  <!-- agent icons (consistent across all screens) -->
  <symbol id="i-guide" viewBox="0 0 24 24">
    <circle cx="12" cy="12" r="2" fill="currentColor"/>
    <path d="M12 2v6M12 16v6M2 12h6M16 12h6M5 5l4 4M15 15l4 4M19 5l-4 4M9 15l-4 4" stroke="currentColor" stroke-width="1.7" stroke-linecap="round"/>
  </symbol>
  <symbol id="i-metho" viewBox="0 0 24 24">
    <circle cx="12" cy="7" r="3" fill="none" stroke="currentColor" stroke-width="1.7"/>
    <circle cx="5" cy="17" r="2.4" fill="none" stroke="currentColor" stroke-width="1.7"/>
    <circle cx="19" cy="17" r="2.4" fill="none" stroke="currentColor" stroke-width="1.7"/>
    <path d="M9.7 9.4L7 14.8M14.3 9.4L17 14.8M7.5 17h9" fill="none" stroke="currentColor" stroke-width="1.7" stroke-linecap="round"/>
  </symbol>
  <symbol id="i-skeptic" viewBox="0 0 24 24">
    <circle cx="11" cy="11" r="6.5" fill="none" stroke="currentColor" stroke-width="1.7"/>
    <line x1="16" y1="16" x2="21" y2="21" stroke="currentColor" stroke-width="1.7" stroke-linecap="round"/>
  </symbol>
  <symbol id="i-explorer" viewBox="0 0 24 24">
    <circle cx="12" cy="12" r="9" fill="none" stroke="currentColor" stroke-width="1.6"/>
    <path d="M8 14c3 1 7 1 8-3 0-1 0-3-2-4-1 0-3 1-4 2-2 1-3 3-2 5z" fill="none" stroke="currentColor" stroke-width="1.6" stroke-linejoin="round"/>
    <line x1="8" y1="14" x2="11" y2="11" stroke="currentColor" stroke-width="1.6" stroke-linecap="round"/>
  </symbol>
  <symbol id="i-stylist" viewBox="0 0 24 24">
    <path d="M4 20l4-1 11-11-3-3L5 16l-1 4z" fill="none" stroke="currentColor" stroke-width="1.6" stroke-linejoin="round"/>
    <path d="M14 5l3 3" stroke="currentColor" stroke-width="1.6"/>
  </symbol>

  <!-- finding-specific action icons -->
  <symbol id="i-fig-add" viewBox="0 0 24 24">
    <path d="M4 19V5M4 19h16" fill="none" stroke="currentColor" stroke-width="1.6"/>
    <path d="M7 16V11M11 16V8M15 16V12M19 16V7" fill="none" stroke="currentColor" stroke-width="1.6" stroke-linecap="round"/>
    <circle cx="20" cy="6" r="4" fill="#fff" stroke="currentColor" stroke-width="1.6"/>
    <path d="M20 4v4M18 6h4" stroke="currentColor" stroke-width="1.6" stroke-linecap="round"/>
  </symbol>
  <symbol id="i-list-check" viewBox="0 0 24 24">
    <rect x="3" y="4" width="18" height="16" rx="2" fill="none" stroke="currentColor" stroke-width="1.6"/>
    <path d="M7 10l2 2 4-4M7 16h10" fill="none" stroke="currentColor" stroke-width="1.6" stroke-linecap="round" stroke-linejoin="round"/>
  </symbol>

</svg>
